{"title":"[ShepardTDS] The Devil Is A Part Timer! Dual Audio HEVC","uid":14127605,"size":1959203400,"categoryP":"video","categoryS":"tv_shows","magnet":"?xt=urn:btih:7b88a4d4582b073362e44b0d8b1b4e2bfcda4ab2&amp;dn=%5BShepardTDS%5D+The+Devil+Is+A+Part+Timer%21+Dual+Audio+HEVC&amp;tr=udp%3A%2F%2Ftracker.leechers-paradise.org%3A6969&amp;tr=udp%3A%2F%2Fzer0day.ch%3A1337&amp;tr=udp%3A%2F%2Fopen.demonii.com%3A1337&amp;tr=udp%3A%2F%2Ftracker.coppersurfer.tk%3A6969&amp;tr=udp%3A%2F%2Fexodus.desync.com%3A6969","seeders":0,"leechers":1,"uploader":"ShepardTDS","files":21,"time":1459512483,"description":"Constant Quality encoding.\r\nVariable Bit rates\r\nOP and ED included\r\nBlu-Ray Source\r\n\r\n\r\nGeneral\r\n\r\nFormat : Matroska\r\nFile size : 127 MiB-165 MiB\r\nDuration : 23mn 47s\r\nOverall bit rate : 747 Kbps-970 Kbps\r\nEncoded date : UTC 2016-03-31 07:05:35\r\nWriting application : mkvmerge v8.5.2 ('Crosses') 32bit\r\nWriting library : libebml v1.3.3 + libmatroska v1.4.4\r\n\r\nVideo\r\nID : 1\r\nFormat : V_MPEGH/ISO/HEVC\r\nCodec ID : V_MPEGH/ISO/HEVC\r\nDuration : 23mn 47s\r\nBit rate : 348 Kbps-567 Kbps\r\nWidth : 1 280 pixels\r\nHeight : 720 pixels\r\nDisplay aspect ratio : 16:9\r\nFrame rate : 23.976 fps\r\nBits/(Pixel*Frame) : 0.016\r\nStream size : 59.3 MiB (47%)\r\n\r\nAudio #1\r\nID : 2\r\nFormat : AC-3\r\nFormat/Info : Audio Coding 3\r\nMode extension : CM (complete main)\r\nCodec ID : A_AC3\r\nDuration : 23mn 47s\r\nBit rate mode : Constant\r\nBit rate : 192 Kbps\r\nChannel(s) : 2 channels\r\nChannel positions : Front: L R\r\nSampling rate : 48.0 KHz\r\nBit depth : 16 bits\r\nCompression mode : Lossy\r\nStream size : 32.7 MiB (26%)\r\nLanguage : English\r\n\r\nAudio #2\r\nID : 3\r\nFormat : AC-3\r\nFormat/Info : Audio Coding 3\r\nMode extension : CM (complete main)\r\nCodec ID : A_AC3\r\nDuration : 23mn 47s\r\nBit rate mode : Constant\r\nBit rate : 192 Kbps\r\nChannel(s) : 2 channels\r\nChannel positions : Front: L R\r\nSampling rate : 48.0 KHz\r\nBit depth : 16 bits\r\nCompression mode : Lossy\r\nStream size : 32.7 MiB (26%)\r\nLanguage : Japanese\r\n\r\nText #1\r\nID : 4\r\nFormat : ASS\r\nCodec ID : S_TEXT/ASS\r\nCodec ID/Info : Advanced Sub Station Alpha\r\nCompression mode : Lossless\r\nTitle : English (Translation Only)\r\nLanguage : English\r\n\r\nText #2\r\nID : 5\r\nFormat : ASS\r\nCodec ID : S_TEXT/ASS\r\nCodec ID/Info : Advanced Sub Station Alpha\r\nCompression mode : Lossless\r\nTitle : English\r\nLanguage : English","torrent":{"xt":"urn:btih:7b88a4d4582b073362e44b0d8b1b4e2bfcda4ab2","amp;dn":"%5BShepardTDS%5D+The+Devil+Is+A+Part+Timer%21+Dual+Audio+HEVC","amp;tr":["udp%3A%2F%2Ftracker.leechers-paradise.org%3A6969","udp%3A%2F%2Fzer0day.ch%3A1337","udp%3A%2F%2Fopen.demonii.com%3A1337","udp%3A%2F%2Ftracker.coppersurfer.tk%3A6969","udp%3A%2F%2Fexodus.desync.com%3A6969"],"infoHash":"7b88a4d4582b073362e44b0d8b1b4e2bfcda4ab2","infoHashBuffer":{"type":"Buffer","data":[123,136,164,212,88,43,7,51,98,228,75,13,139,27,78,43,252,218,74,178]},"announce":[],"urlList":[]}}